<svg
  xmlns="http://www.w3.org/2000/svg"
  viewBox="0 0 160 160"
  fill="none"
>
  <circle cx="49" cy="34" r="18" fill="#171717" />
  <circle cx="111" cy="34" r="18" fill="#171717" />

  <circle cx="78" cy="70" r="48" stroke="#171717" stroke-width="10" />
  <circle cx="78" cy="70" r="37" stroke="#171717" stroke-width="7" />

  <path
    d="M47 102L20 129C14 135 14 145 20 151C26 157 36 157 42 151L68 124"
    stroke="#171717"
    stroke-linecap="round"
    stroke-linejoin="round"
    stroke-width="10"
  />

  <ellipse cx="60" cy="67" rx="10" ry="14" fill="#171717" transform="rotate(18 60 67)" />
  <ellipse cx="95" cy="67" rx="10" ry="14" fill="#171717" transform="rotate(-18 95 67)" />
  <circle cx="64" cy="60" r="3.2" fill="#FFFFFF" />
  <circle cx="91" cy="60" r="3.2" fill="#FFFFFF" />

  <ellipse cx="78" cy="83" rx="8.5" ry="5.5" fill="#171717" />
  <path
    d="M78 88V92M78 92C75 92 73 94 73 97M78 92C81 92 83 94 83 97"
    stroke="#171717"
    stroke-linecap="round"
    stroke-linejoin="round"
    stroke-width="3.5"
  />
</svg>
